<?xml version="1.0" encoding="UTF-8" standalone="no"?>
<!DOCTYPE svg PUBLIC "-//W3C//DTD SVG 1.1//EN" "http://www.w3.org/Graphics/SVG/1.1/DTD/svg11.dtd">
<svg width="100%" height="100%" viewBox="0 0 450 543" version="1.1" xmlns="http://www.w3.org/2000/svg" xmlns:xlink="http://www.w3.org/1999/xlink" xml:space="preserve" xmlns:serif="http://www.serif.com/" style="fill-rule:evenodd;clip-rule:evenodd;stroke-linejoin:round;stroke-miterlimit:2;">
    <g transform="matrix(1,0,0,1,-534.225823,-232)">
        <g>
            <g transform="matrix(7.377049,0,0,6.873418,-1612.495488,-2483)">
                <rect x="291" y="395" width="61" height="79" style="fill:rgb(235,235,235);fill-opacity:0;"/>
            </g>
            <g transform="matrix(1,0,0,1,-7.154914,-8.598214)">
                <g transform="matrix(1.23077,0,0,1.23077,0,0)">
                    <path d="M698.801,303.413C683.173,304.163 682.45,295.007 685.343,291.902C691.136,285.686 713.183,289.55 715.57,289.968C756.873,293.44 793.483,305.425 797.292,315.568C800.351,323.716 786.744,340.17 785.266,341.957C756.1,377.226 657.359,470.731 648.666,477.752L648.329,478.02C648.702,494.48 650.414,511.93 646.984,527.996C646.295,530.837 640.751,553.712 616.335,547.89C590.598,541.753 597.915,480.082 597.977,478.142L582.133,462.984C577.82,458.425 571.548,452.932 566.901,448.41L523.27,406.521C501.513,386.218 480.55,365.078 460.431,343.149C468.444,337.26 470.999,333.719 476.41,325.67C521.846,340.768 574.616,340.117 577.857,340.674C612.381,340.195 641.204,345.243 677.292,341.525C707.584,340.319 751.682,335.231 778.425,322.35C741.319,304.228 739.852,309.294 698.801,303.413Z" style="fill:url(#_Linear1);fill-rule:nonzero;"/>
                </g>
                <g transform="matrix(1.23077,0,0,1.23077,0,0)">
                    <path d="M476.41,325.67C542.458,347.617 670.786,342.195 677.292,341.525C672.615,346.269 662.052,361.708 656.656,368.562L603.599,435.794C600.325,439.934 584.655,458.948 582.906,462.544L582.133,462.984C577.82,458.425 571.548,452.932 566.901,448.41L523.27,406.521C501.513,386.218 480.55,365.078 460.431,343.149C468.444,337.26 470.999,333.719 476.41,325.67Z" style="fill:url(#_Linear2);fill-rule:nonzero;"/>
                </g>
                <g transform="matrix(1.23077,0,0,1.23077,0,0)">
                    <path d="M476.41,325.67C525.439,341.962 526.437,336.802 577.857,340.674C576.327,342.471 572.857,341.615 571.327,343.412C567.213,348.244 525.344,397.423 523.27,406.521C501.513,386.218 480.55,365.078 460.431,343.149C468.444,337.26 470.999,333.719 476.41,325.67Z" style="fill:url(#_Linear3);fill-rule:nonzero;"/>
                </g>
                <g transform="matrix(1.23077,0,0,1.23077,0,0)">
                    <path d="M698.801,303.413C676.142,304.5 680.366,284.905 701.331,288.406C705.531,289.108 711.011,289.169 715.57,289.968L717.151,291.493L716.89,292.198C710.159,294.279 713.06,302.958 700.683,302.912C700.011,302.909 699.416,303.149 698.801,303.413Z" style="fill:rgb(114,80,209);fill-rule:nonzero;"/>
                </g>
                <g transform="matrix(1.23077,0,0,1.23077,0,0)">
                    <path d="M469.435,383.566C477.781,390.037 486.376,399.253 493.744,406.936C511.348,424.295 529.082,441.523 546.944,458.617C554.393,465.76 570.914,480.844 576.888,488.239C576.209,508.236 573.357,539.405 588.273,554.425C597.76,563.977 612.251,569.169 622.438,579.67C622.642,584.274 623.512,597.78 622.492,601.419L622.838,601.836C623.901,606.469 623.497,623.181 623.425,629.033C618.625,627.879 608.208,621.496 603.8,618.726C573.595,599.742 542.981,576.907 518.659,550.781C468.982,497.417 466.38,452.787 469.435,383.566Z" style="fill:rgb(7,82,160);fill-rule:nonzero;"/>
                </g>
                <g transform="matrix(1.23077,0,0,1.23077,0,0)">
                    <path d="M469.435,383.566C477.781,390.037 486.376,399.253 493.744,406.936C485.816,425.719 495.963,468.285 503.505,486.682C520.416,527.932 557.415,559.531 593.53,583.973C601.939,589.664 613.657,597.105 622.492,601.419L622.838,601.836C623.901,606.469 623.497,623.181 623.425,629.033C618.625,627.879 608.208,621.496 603.8,618.726C573.595,599.742 542.981,576.907 518.659,550.781C468.982,497.417 466.38,452.787 469.435,383.566Z" style="fill:url(#_Linear4);fill-rule:nonzero;"/>
                </g>
                <g transform="matrix(1.23077,0,0,1.23077,0,0)">
                    <path d="M752.604,406.415C759.971,398.595 767.398,390.76 775.699,383.912C779.84,423.995 779.761,461.424 762.259,498.677C738.665,548.9 694.697,583.226 649.516,613.07C641.858,618.128 631.681,625.294 623.425,629.033C623.497,623.181 623.901,606.469 622.838,601.836L622.492,601.419C623.512,597.78 622.642,584.274 622.438,579.67C633.595,571.143 648.315,563.269 657.712,554.072C672.727,539.376 670.432,507.379 669.972,487.433C697.965,460.889 725.512,433.879 752.604,406.415Z" style="fill:rgb(31,171,111);fill-rule:nonzero;"/>
                </g>
                <g transform="matrix(1.23077,0,0,1.23077,0,0)">
                    <path d="M752.604,406.415C759.971,398.595 767.398,390.76 775.699,383.912C779.84,423.995 779.761,461.424 762.259,498.677C738.665,548.9 694.697,583.226 649.516,613.07C641.858,618.128 631.681,625.294 623.425,629.033C623.497,623.181 623.901,606.469 622.838,601.836C628.98,599.386 642.621,590.594 648.37,586.643C682.256,563.349 715.641,536.311 735.453,499.544C747.954,476.345 753.74,452.755 754.061,426.518C754.135,420.505 754.301,412.089 752.604,406.415Z" style="fill:rgb(126,214,105);fill-rule:nonzero;"/>
                </g>
                <g transform="matrix(1.23077,0,0,1.23077,0,0)">
                    <path d="M543.439,206.256C559.408,203.86 574.308,214.829 576.769,230.792C579.23,246.755 568.325,261.704 552.377,264.231C536.335,266.773 521.283,255.788 518.808,239.732C516.332,223.675 527.377,208.665 543.439,206.256Z" style="fill:rgb(237,115,46);fill-rule:nonzero;"/>
                </g>
                <g transform="matrix(1.23077,0,0,1.23077,0,0)">
                    <path d="M637.708,228.769C648.079,226.997 658.601,230.939 665.255,239.091C671.909,247.242 673.667,258.343 669.857,268.153C666.047,277.962 657.258,284.964 646.847,286.484C631.019,288.795 616.277,277.944 613.775,262.142C611.273,246.34 621.941,231.463 637.708,228.769Z" style="fill:rgb(240,188,41);fill-rule:nonzero;"/>
                </g>
                <g transform="matrix(1.23077,0,0,1.23077,0,0)">
                    <path d="M732.141,203.279C747.901,201.665 762.036,213.008 763.877,228.747C765.718,244.486 754.582,258.786 738.875,260.854C728.511,262.218 718.216,257.894 711.933,249.539C705.65,241.183 704.353,230.09 708.538,220.509C712.723,210.928 721.743,204.344 732.141,203.279Z" style="fill:rgb(3,191,219);fill-rule:nonzero;"/>
                </g>
                <g transform="matrix(1.23077,0,0,1.23077,0,0)">
                    <path d="M460.431,343.149C455.054,336.819 447.721,327.126 447.63,318.524C447.518,307.865 471.347,300.031 480.07,298.082C512.809,290.833 547.409,287.815 580.895,286.748C590.665,286.437 597.906,299.554 578.016,301.885C543.388,305.944 498.461,301.865 468.825,322.377L476.41,325.67C470.999,333.719 468.444,337.26 460.431,343.149Z" style="fill:rgb(214,69,127);fill-rule:nonzero;"/>
                </g>
            </g>
        </g>
    </g>
    <defs>
        <linearGradient id="_Linear1" x1="0" y1="0" x2="1" y2="0" gradientUnits="userSpaceOnUse" gradientTransform="matrix(74.75464,58.82285,-58.82285,74.75464,643.36169,382.13867)"><stop offset="0" style="stop-color:rgb(103,86,212);stop-opacity:1"/><stop offset="1" style="stop-color:rgb(33,111,251);stop-opacity:1"/></linearGradient>
        <linearGradient id="_Linear2" x1="0" y1="0" x2="1" y2="0" gradientUnits="userSpaceOnUse" gradientTransform="matrix(65.37714,51.06519,-51.06519,65.37714,564.37524,351.4299)"><stop offset="0" style="stop-color:rgb(167,65,177);stop-opacity:1"/><stop offset="1" style="stop-color:rgb(102,87,212);stop-opacity:1"/></linearGradient>
        <linearGradient id="_Linear3" x1="0" y1="0" x2="1" y2="0" gradientUnits="userSpaceOnUse" gradientTransform="matrix(70.3262,54.79795,-54.79795,70.3262,480.80191,319.07275)"><stop offset="0" style="stop-color:rgb(232,43,144);stop-opacity:1"/><stop offset="1" style="stop-color:rgb(164,66,179);stop-opacity:1"/></linearGradient>
        <linearGradient id="_Linear4" x1="0" y1="0" x2="1" y2="0" gradientUnits="userSpaceOnUse" gradientTransform="matrix(-141.71292,8.16788,-8.16788,-141.71292,615.81885,502.50772)"><stop offset="0" style="stop-color:rgb(88,204,182);stop-opacity:1"/><stop offset="1" style="stop-color:rgb(28,123,238);stop-opacity:1"/></linearGradient>
    </defs>
</svg>
